HIERARCHY
ROOT Hips
{
    OFFSET 0.000000 0.000000 0.000000
    CHANNELS 6 Xposition Yposition Zposition Zrotation Xrotation Yrotation
    JOINT Spine
    {
        OFFSET 0.000001 7.292995 0.000000
        CHANNELS 3 Zrotation Xrotation Yrotation
        JOINT Spine1
        {
            OFFSET -0.000000 20.255388 0.000001
            CHANNELS 3 Zrotation Xrotation Yrotation
            JOINT Neck
            {
                OFFSET 0.000001 20.786594 0.000000
                CHANNELS 3 Zrotation Xrotation Yrotation
                JOINT Head
                {
                    OFFSET 0.000003 12.530788 1.776080
                    CHANNELS 3 Zrotation Xrotation Yrotation
                    End Site
                    {
                        OFFSET 0.000000 17.760757 0.000000
                    }
                }
            }
            JOINT LeftShoulder
            {
                OFFSET 3.550532 15.465697 -0.908801
                CHANNELS 3 Zrotation Xrotation Yrotation
                JOINT LeftArm
                {
                    OFFSET 12.513301 -0.000005 0.000001
                    CHANNELS 3 Zrotation Xrotation Yrotation
                    JOINT LeftForeArm
                    {
                        OFFSET 24.225992 0.000005 0.000000
                        CHANNELS 3 Zrotation Xrotation Yrotation
                        JOINT LeftHand
                        {
                            OFFSET 20.711395 -0.000004 0.000000
                            CHANNELS 3 Zrotation Xrotation Yrotation
                            JOINT LeftHandThumb1
                            {
                                OFFSET 2.121964 -2.411326 3.375861
                                CHANNELS 3 Zrotation Xrotation Yrotation
                                JOINT LeftHandThumb2
                                {
                                    OFFSET 2.803212 -0.000001 -0.000002
                                    CHANNELS 3 Zrotation Xrotation Yrotation
                                    JOINT LeftHandThumb3
                                    {
                                        OFFSET 2.395929 0.000000 0.000000
                                        CHANNELS 3 Zrotation Xrotation Yrotation
                                        End Site
                                        {
                                            OFFSET 2.127676 0.000000 0.000000
                                        }
                                    }
                                }
                            }
                            JOINT LeftHandIndex1
                            {
                                OFFSET 8.680776 0.000004 3.375861
                                CHANNELS 3 Zrotation Xrotation Yrotation
                                JOINT LeftHandIndex2
                                {
                                    OFFSET 4.218180 -0.000002 0.000001
                                    CHANNELS 3 Zrotation Xrotation Yrotation
                                    JOINT LeftHandIndex3
                                    {
                                        OFFSET 2.109090 0.000001 -0.000000
                                        CHANNELS 3 Zrotation Xrotation Yrotation
                                        End Site
                                        {
                                            OFFSET 1.872952 0.000000 0.000000
                                        }
                                    }
                                }
                            }
                            JOINT LeftHandMiddle1
                            {
                                OFFSET 8.680775 0.000001 1.118862
                                CHANNELS 3 Zrotation Xrotation Yrotation
                                JOINT LeftHandMiddle2
                                {
                                    OFFSET 4.640000 0.000002 -0.000000
                                    CHANNELS 3 Zrotation Xrotation Yrotation
                                    JOINT LeftHandMiddle3
                                    {
                                        OFFSET 2.530906 0.000005 0.000000
                                        CHANNELS 3 Zrotation Xrotation Yrotation
                                        End Site
                                        {
                                            OFFSET 2.247544 0.000000 0.000000
                                        }
                                    }
                                }
                            }
                            JOINT LeftHandRing1
                            {
                                OFFSET 8.198514 -0.000004 -1.118859
                                CHANNELS 3 Zrotation Xrotation Yrotation
                                JOINT LeftHandRing2
                                {
                                    OFFSET 4.218182 -0.000003 -0.000001
                                    CHANNELS 3 Zrotation Xrotation Yrotation
                                    JOINT LeftHandRing3
                                    {
                                        OFFSET 2.109086 0.000004 0.000001
                                        CHANNELS 3 Zrotation Xrotation Yrotation
                                        End Site
                                        {
                                            OFFSET 1.872952 0.000000 0.000000
                                        }
                                    }
                                }
                            }
                            JOINT LeftHandPinky1
                            {
                                OFFSET 7.716242 0.000005 -3.375859
                                CHANNELS 3 Zrotation Xrotation Yrotation
                                JOINT LeftHandPinky2
                                {
                                    OFFSET 3.374535 0.000004 0.000002
                                    CHANNELS 3 Zrotation Xrotation Yrotation
                                    JOINT LeftHandPinky3
                                    {
                                        OFFSET 1.687275 0.000002 -0.000001
                                        CHANNELS 3 Zrotation Xrotation Yrotation
                                        End Site
                                        {
                                            OFFSET 1.498360 0.000000 0.000000
                                        }
                                    }
                                }
                            }
                        }
                    }
                }
            }
            JOINT RightShoulder
            {
                OFFSET -3.550531 15.465694 -0.908802
                CHANNELS 3 Zrotation Xrotation Yrotation
                JOINT RightArm
                {
                    OFFSET -12.513298 -0.000004 0.000001
                    CHANNELS 3 Zrotation Xrotation Yrotation
                    JOINT RightForeArm
                    {
                        OFFSET -24.225996 -0.000002 -0.000000
                        CHANNELS 3 Zrotation Xrotation Yrotation
                        JOINT RightHand
                        {
                            OFFSET -20.711401 0.000005 0.000001
                            CHANNELS 3 Zrotation Xrotation Yrotation
                            JOINT RightHandThumb1
                            {
                                OFFSET -2.121970 -2.411334 3.375861
                                CHANNELS 3 Zrotation Xrotation Yrotation
                                JOINT RightHandThumb2
                                {
                                    OFFSET -2.803210 0.000003 -0.000004
                                    CHANNELS 3 Zrotation Xrotation Yrotation
                                    JOINT RightHandThumb3
                                    {
                                        OFFSET -2.395930 -0.000001 0.000002
                                        CHANNELS 3 Zrotation Xrotation Yrotation
                                        End Site
                                        {
                                            OFFSET -2.127676 0.000000 0.000000
                                        }
                                    }
                                }
                            }
                            JOINT RightHandIndex1
                            {
                                OFFSET -8.680779 0.000001 3.375860
                                CHANNELS 3 Zrotation Xrotation Yrotation
                                JOINT RightHandIndex2
                                {
                                    OFFSET -4.218180 0.000000 -0.000000
                                    CHANNELS 3 Zrotation Xrotation Yrotation
                                    JOINT RightHandIndex3
                                    {
                                        OFFSET -2.109090 0.000001 -0.000000
                                        CHANNELS 3 Zrotation Xrotation Yrotation
                                        End Site
                                        {
                                            OFFSET -1.872952 0.000000 0.000000
                                        }
                                    }
                                }
                            }
                            JOINT RightHandMiddle1
                            {
                                OFFSET -8.680780 0.000001 1.118860
                                CHANNELS 3 Zrotation Xrotation Yrotation
                                JOINT RightHandMiddle2
                                {
                                    OFFSET -4.640000 -0.000002 0.000001
                                    CHANNELS 3 Zrotation Xrotation Yrotation
                                    JOINT RightHandMiddle3
                                    {
                                        OFFSET -2.530910 0.000001 -0.000000
                                        CHANNELS 3 Zrotation Xrotation Yrotation
                                        End Site
                                        {
                                            OFFSET -2.247544 0.000000 0.000000
                                        }
                                    }
                                }
                            }
                            JOINT RightHandRing1
                            {
                                OFFSET -8.198519 0.000005 -1.118860
                                CHANNELS 3 Zrotation Xrotation Yrotation
                                JOINT RightHandRing2
                                {
                                    OFFSET -4.218180 -0.000006 0.000000
                                    CHANNELS 3 Zrotation Xrotation Yrotation
                                    JOINT RightHandRing3
                                    {
                                        OFFSET -2.109090 0.000001 -0.000000
                                        CHANNELS 3 Zrotation Xrotation Yrotation
                                        End Site
                                        {
                                            OFFSET -1.872952 0.000000 0.000000
                                        }
                                    }
                                }
                            }
                            JOINT RightHandPinky1
                            {
                                OFFSET -7.716248 -0.000002 -3.375859
                                CHANNELS 3 Zrotation Xrotation Yrotation
                                JOINT RightHandPinky2
                                {
                                    OFFSET -3.374540 0.000000 0.000000
                                    CHANNELS 3 Zrotation Xrotation Yrotation
                                    JOINT RightHandPinky3
                                    {
                                        OFFSET -1.687270 0.000004 0.000001
                                        CHANNELS 3 Zrotation Xrotation Yrotation
                                        End Site
                                        {
                                            OFFSET -1.498360 0.000000 0.000000
                                        }
                                    }
                                }
                            }
                        }
                    }
                }
            }
        }
    }
    JOINT LeftUpLeg
    {
        OFFSET 8.880376 -0.000000 -0.000000
        CHANNELS 3 Zrotation Xrotation Yrotation
        JOINT LeftLeg
        {
            OFFSET -0.000001 -40.387405 -0.000001
            CHANNELS 3 Zrotation Xrotation Yrotation
            JOINT LeftFoot
            {
                OFFSET -0.000001 -36.911297 -0.000001
                CHANNELS 3 Zrotation Xrotation Yrotation
                JOINT LeftToeBase
                {
                    OFFSET -0.000002 -5.772240 13.320604
                    CHANNELS 3 Zrotation Xrotation Yrotation
                    End Site
                    {
                        OFFSET 0.000000 0.000000 3.552151
                    }
                }
            }
        }
    }
    JOINT RightUpLeg
    {
        OFFSET -8.880376 0.000000 0.000000
        CHANNELS 3 Zrotation Xrotation Yrotation
        JOINT RightLeg
        {
            OFFSET -0.000001 -40.387390 0.000000
            CHANNELS 3 Zrotation Xrotation Yrotation
            JOINT RightFoot
            {
                OFFSET 0.000002 -36.911297 -0.000001
                CHANNELS 3 Zrotation Xrotation Yrotation
                JOINT RightToeBase
                {
                    OFFSET 0.000001 -5.772238 13.320600
                    CHANNELS 3 Zrotation Xrotation Yrotation
                    End Site
                    {
                        OFFSET 0.000000 0.000000 3.552151
                    }
                }
            }
        }
    }
}
MOTION
Frames: 4
Frame Time: 0.013889
48.519531    82.898384    8.518001    2.777727    8.399499    10.693970    -0.459926    -17.331264    -1.543578    6.365749    13.519020    -2.933557    -8.500581    -8.692290    -4.337208    11.068742    6.456287    -4.343017    19.092241    -0.175077    1.857662    9.300477    23.283401    -39.516888    -52.550106    18.001358    -103.317131    11.916552    -14.381853    22.873558    39.389126    26.251465    -50.334213    -22.995016    -4.738275    22.857332    -0.000000    0.000000    -0.000000    6.022321    17.906975    3.871680    5.729576    -0.000003    0.000006    5.729585    0.000000    0.000002    5.800517    8.954676    1.958896    5.729578    0.000003    -0.000004    5.729579    -0.000002    0.000002    5.800510    -8.954668    2.647047    5.729580    -0.000003    0.000002    5.729577    0.000001    -0.000005    6.022324    -17.906973    5.340232    5.729577    -0.000000    -0.000001    5.729579    0.000003    -0.000005    8.476542    3.873937    7.292861    40.248535    26.568264    19.702320    45.083755    -11.764025    78.509148    60.092510    -37.152321    24.685028    -43.069962    23.681620    48.760761    12.378922    -0.203025    -23.316639    -0.000000    0.000000    -0.000000    30.333765    15.665456    10.166674    29.096159    0.000002    0.000007    29.096138    -0.000000    -0.000001    29.207365    7.871098    5.194638    28.906017    0.000003    -0.000003    28.906040    0.000000    0.000001    29.111677    -7.878354    0.223647    28.810978    0.000001    -0.000003    28.810978    -0.000000    -0.000000    29.943586    -15.724444    0.590558    28.715921    0.000003    -0.000003    28.715921    0.000000    -0.000000    8.678606    -17.859182    -9.408700    0.000001    28.457460    0.000001    0.314725    -2.377924    -0.102423    -0.000000    0.193777    -0.000000    -11.812486    -10.550265    -12.729432    0.000001    27.887865    0.000000    7.529619    -13.498303    2.717553    -0.000000    -0.589462    0.000000    
49.196842    83.155663    8.621981    2.372754    8.283382    10.825274    -0.440996    -17.507692    -1.465622    6.425637    13.512658    -2.873218    -8.064291    -8.628390    -4.494776    11.078796    6.309829    -4.556437    19.502447    -0.432232    2.082991    9.451313    21.831446    -39.677219    -52.094200    19.217209    -104.374939    12.349281    -14.545887    23.026009    39.126564    26.532522    -50.222973    -22.655668    -4.595610    22.884951    -0.000000    0.000000    -0.000000    6.022314    17.906971    3.871682    5.729573    0.000003    -0.000009    5.729584    0.000002    0.000002    5.800503    8.954670    1.958893    5.729588    0.000004    0.000008    5.729577    0.000005    -0.000009    5.800505    -8.954668    2.534863    5.729583    0.000000    0.000002    5.729577    -0.000002    0.000001    6.022316    -17.906971    5.115859    5.729576    0.000003    -0.000005    5.729582    0.000002    0.000002    7.680962    4.055879    7.550918    39.703327    27.958790    19.929312    41.659393    -12.349361    76.483292    60.295212    -36.914291    28.143032    -41.685101    24.869421    48.741589    12.985893    -0.464609    -23.313108    -0.000000    0.000000    -0.000000    28.770723    15.897400    9.438342    27.574257    0.000012    0.000006    27.574253    -0.000006    0.000003    27.431561    8.001977    4.863127    27.142385    0.000012    0.000006    27.142374    -0.000004    -0.000000    27.214062    -8.017482    0.766669    26.926434    0.000002    0.000003    26.926443    -0.000001    0.000003    27.882044    -16.024052    1.637483    26.710508    0.000006    0.000001    26.710489    -0.000001    -0.000002    9.386977    -17.061815    -8.894220    -0.000001    26.848372    0.000000    0.145840    -1.168088    -2.508146    -0.000000    -0.168428    0.000000    -11.828841    -9.823153    -12.855727    -0.000001    26.653961    0.000000    8.134980    -11.949658    3.045138    -0.000000    -0.956566    0.000000    
49.758739    83.355537    8.701142    2.064160    8.192083    10.840659    -0.401525    -17.592642    -1.328249    6.473320    13.468710    -2.751456    -7.725747    -8.646521    -4.707242    11.150776    6.198301    -4.812798    19.842466    -0.636615    2.191697    9.490997    20.670078    -39.831497    -51.822155    20.234863    -105.213982    12.627658    -14.772303    23.045811    38.996548    26.677132    -50.150570    -22.364248    -4.472916    22.907978    -0.000000    0.000000    -0.000000    6.022314    17.906971    3.871683    5.729579    0.000003    -0.000001    5.729574    0.000002    0.000002    5.800512    8.954673    1.958895    5.729579    -0.000003    0.000008    5.729580    0.000003    -0.000002    5.800518    -8.954669    2.462428    5.729578    0.000000    0.000002    5.729575    0.000000    0.000002    6.022319    -17.906979    4.970977    5.729582    0.000000    0.000004    5.729573    0.000002    -0.000003    7.155663    4.155243    7.778293    38.811443    29.020025    19.944914    41.172417    -12.798513    75.786499    59.730530    -36.623039    28.782507    -41.313000    25.162066    48.800121    13.117666    -0.521382    -23.311966    -0.000000    0.000000    -0.000000    27.698351    16.049753    8.771660    26.532080    0.000008    0.000005    26.532080    -0.000004    -0.000000    26.409723    8.073821    4.525103    26.128036    0.000004    0.000003    26.128036    -0.000000    -0.000001    26.206173    -8.087824    1.023334    25.926006    0.000003    0.000004    25.926006    -0.000000    -0.000002    26.865713    -16.164219    2.151452    25.723980    -0.000001    0.000003    25.723989    -0.000001    -0.000002    9.826433    -16.467478    -8.271297    0.000000    25.713295    0.000000    0.125050    0.422538    -4.524488    0.000000    -0.269900    -0.000000    -11.843051    -9.298536    -12.852760    -0.000001    25.711231    -0.000000    8.508431    -10.719277    3.161198    -0.000000    -1.305357    0.000000    
50.335861    83.562981    8.782420    1.768232    8.108951    10.939197    -0.374213    -17.708673    -1.230075    6.434126    13.464984    -2.649584    -7.322131    -8.712543    -4.914963    11.286237    6.138289    -5.087222    20.209881    -0.832657    2.263400    9.522466    19.485867    -40.015953    -51.568829    21.221432    -106.024986    12.790941    -15.060404    22.927904    38.874744    26.820686    -50.058064    -22.075760    -4.351297    22.930197    -0.000000    0.000000    -0.000000    6.022321    17.906975    3.871675    5.729577    -0.000000    -0.000003    5.729577    -0.000004    -0.000003    5.800512    8.954672    1.958896    5.729575    -0.000000    -0.000002    5.729581    0.000004    0.000002    5.800512    -8.954670    2.439786    5.729583    0.000000    0.000003    5.729572    -0.000003    0.000000    6.022315    -17.906977    4.925694    5.729574    -0.000000    -0.000000    5.729578    0.000001    -0.000004    6.888494    4.231207    7.898573    37.695404    29.982527    19.844067    41.624641    -13.219087    75.568649    59.656853    -36.341103    28.326729    -41.226372    25.207008    48.869793    13.108964    -0.517648    -23.312054    -0.000000    0.000000    -0.000000    26.736908    16.181625    7.987429    25.599056    -0.000003    0.000001    25.599060    0.000006    -0.000004    25.557402    8.131783    4.119686    25.282230    0.000004    0.000000    25.282240    0.000000    -0.000000    25.397745    -8.142447    1.162194    25.123821    0.000003    -0.000002    25.123814    -0.000001    0.000001    26.083225    -16.268721    2.438883    24.965395    0.000002    -0.000005    24.965412    -0.000000    0.000003    10.123412    -15.923221    -7.679365    0.000001    24.612335    -0.000000    0.385370    2.663980    -6.507666    -0.000002    -0.258295    -0.000000    -11.908820    -8.740346    -13.016534    0.000001    24.736248    -0.000000    8.927825    -9.413538    3.358532    -0.000000    -1.686111    -0.000000    
